#!OML:ASF F:\VICON\USERDATA\INSTALL\rory3\rory3.ASF
:FULLY-SPECIFIED
:DEGREES
2032
root 2.75622 17.6714 -2.90125 5.21795 -12.7754 -0.0199076
lowerback 9.08238 -0.525767 1.88894
upperback 3.58429 -0.470445 4.43349
thorax -1.34979 -0.259059 3.57967
lowerneck -19.2658 -10.2439 -12.8266
upperneck 4.53723 -12.5109 16.7222
head 6.44481 -5.24241 5.95211
rclavicle 9.93923e-015 2.06736e-014
rhumerus -23.6901 25.9991 -96.1089
rradius 31.1668
rwrist 20.0537
rhand -8.0235 0.555771
rfingers 7.12502
rthumb 17.8862 -28.6417
lclavicle 9.93923e-015 2.06736e-014
lhumerus -27.6164 -23.1744 106.132
lradius 36.4122
lwrist -18.4101
lhand -13.9333 27.5949
lfingers 7.12502
lthumb 12.1934 57.2195
rfemur -18.6285 8.06291 20.5026
rtibia 36.2636
rfoot -17.8611 4.41891
rtoes 5.77937
lfemur -24.0141 -11.8964 -5.67144
ltibia 10.7368
lfoot -10.4663 10.1309
ltoes -24.4122
2033
root 2.80174 17.6729 -2.8573 5.55446 -13.4788 -0.0359137
lowerback 9.2342 -0.518732 1.78
upperback 3.54397 -0.462388 4.44172
thorax -1.4747 -0.255897 3.65194
lowerneck -18.7133 -10.055 -12.9128
upperneck 4.38389 -12.281 16.7627
head 6.28314 -5.16267 6.03026
rclavicle -1.19271e-015 -4.45278e-014
rhumerus -23.8971 27.5239 -96.1262
rradius 32.0883
rwrist 17.6801
rhand -9.08066 -0.610275
rfingers 7.12502
rthumb 16.8688 -29.8976
lclavicle -1.19271e-015 -4.45278e-014
lhumerus -28.2556 -23.0113 106.152
lradius 37.684
lwrist -18.283
lhand -14.0007 28.6583
lfingers 7.12502
lthumb 12.1284 58.2867
rfemur -19.0179 8.33152 20.2264
rtibia 36.4063
rfoot -17.8884 4.88913
rtoes 5.77012
lfemur -23.9739 -11.6052 -5.76624
ltibia 9.81516
lfoot -10.5695 9.30571
ltoes -24.0612
2034
root 2.84642 17.6712 -2.81779 6.15522 -14.0719 0.226208
lowerback 8.99566 -0.528534 1.40763
upperback 3.52054 -0.518343 4.35498
thorax -1.36262 -0.285833 3.77381
lowerneck -18.3941 -9.87037 -13.0629
upperneck 4.27774 -12.0468 16.9864
head 6.19249 -5.05796 6.17345
rclavicle -5.08889e-014 -3.02153e-014
rhumerus -23.6877 28.7087 -95.8961
rradius 32.9293
rwrist 16.3517
rhand -9.29515 -1.5024
rfingers 7.12502
rthumb 16.6623 -30.8072
lclavicle -5.08889e-014 -3.02153e-014
lhumerus -28.6768 -22.8481 105.968
lradius 39.0142
lwrist -18.0534
lhand -14.3153 29.4672
lfingers 7.12502
lthumb 11.8251 59.1134
rfemur -19.8089 8.56672 19.5838
rtibia 36.6023
rfoot -17.9055 5.28881
rtoes 6.32004
lfemur -24.2671 -11.3751 -6.06554
ltibia 8.91216
lfoot -10.1723 8.37942
ltoes -23.1341
2035
root 2.89787 17.6722 -2.7713 6.81719 -14.687 0.818591
lowerback 8.56839 -0.552843 0.800989
upperback 3.48304 -0.617307 4.15516
thorax -1.15669 -0.338495 3.91093
lowerneck -18.3213 -9.7294 -13.0398
upperneck 4.3279 -11.8885 17.0817
head 6.17979 -4.97874 6.2277
rclavicle -1.07344e-014 3.18055e-015
rhumerus -23.3766 29.6607 -95.577
rradius 33.67
rwrist 15.5005
rhand -9.60701 -1.73584
rfingers 7.12502
rthumb 16.3621 -31.0657
lclavicle -1.07344e-014 3.18055e-015
lhumerus -28.8919 -22.7199 105.678
lradius 40.0863
lwrist -17.8382
lhand -14.7833 29.6999
lfingers 7.12502
lthumb 11.3737 59.3715
rfemur -20.7543 8.61886 18.5329
rtibia 36.7837
rfoot -17.8755 5.74418
rtoes 6.27265
lfemur -24.7016 -11.1952 -6.79279
ltibia 8.28402
lfoot -9.60935 7.59101
ltoes -22.0999
2036
root 2.94951 17.6758 -2.71846 7.1437 -15.3722 1.13822
lowerback 8.48853 -0.527872 0.462538
upperback 3.51571 -0.617665 3.98756
thorax -1.07733 -0.340988 3.92579
lowerneck -18.2699 -9.66489 -12.9761
upperneck 4.51678 -11.8484 17.0948
head 6.22222 -4.95586 6.22917
rclavicle -6.36111e-015 1.59028e-015
rhumerus -23.2126 30.1291 -95.253
rradius 34.3294
rwrist 15.2156
rhand -10.4503 -1.01338
rfingers 7.12502
rthumb 15.55 -30.4082
lclavicle -6.36111e-015 1.59028e-015
lhumerus -29.0911 -22.7963 105.419
lradius 40.9268
lwrist -17.4738
lhand -15.1576 30.0857
lfingers 7.12502
lthumb 11.0127 59.7768
rfemur -21.2094 8.81471 17.8194
rtibia 36.8946
rfoot -17.8594 6.24265
rtoes 7.5146
lfemur -24.7952 -11.0297 -7.36811
ltibia 8.13243
lfoot -9.1464 6.86405
ltoes -21.3299
